<svg width="28" height="28" viewBox="0 0 28 28" fill="none" xmlns="http://www.w3.org/2000/svg">
  <path d="M14 28C21.732 28 28 21.732 28 14C28 6.26801 21.732 0 14 0C6.26801 0 0 6.26801 0 14C0 21.732 6.26801 28 14 28Z" fill="url(#paint0_linear)"/>
  <path d="M9.33333 20.6667V7.33334H13.0667C15.4 7.33334 17.2 8.13334 18.4667 9.73334C19.7333 11.3333 20.3667 13.4667 20.3667 16.1333V20.6667H17.3V15.8C17.3 14.0667 16.9333 12.7333 16.2 11.8C15.4667 10.8667 14.3333 10.4 12.8 10.4H12.4V20.6667H9.33333Z" fill="white"/>
  <defs>
    <linearGradient id="paint0_linear" x1="0" y1="14" x2="28" y2="14" gradientUnits="userSpaceOnUse">
      <stop stop-color="#FF9D6C"/>
      <stop offset="0.25" stop-color="#FF2992"/>
      <stop offset="0.5" stop-color="#7539FF"/>
      <stop offset="0.75" stop-color="#2ECFF6"/>
      <stop offset="1" stop-color="#17E6C1"/>
    </linearGradient>
  </defs>
</svg>